<?xml version="1.0" encoding="UTF-8"?>
<svg version="1.1" xmlns="http://www.w3.org/2000/svg" width="251" height="176">
<path d="M0 0 C82.83 0 165.66 0 251 0 C251 58.08 251 116.16 251 176 C168.17 176 85.34 176 0 176 C0 117.92 0 59.84 0 0 Z " fill="#FDFEFC" transform="translate(0,0)"/>
<path d="M0 0 C3.21584743 1.40734427 5.60717641 0.73675018 8.91015625 -0.1640625 C10.10640625 -0.6796875 11.30265625 -1.1953125 12.53515625 -1.7265625 C20.22909379 -4.75931846 29.43021756 -4.10401958 37.03125 -1.06640625 C39.89672254 0.30973545 41.84737452 1.3739077 43.91015625 3.8359375 C44.76242658 8.71712214 44.76242658 8.71712214 43.91015625 11.8359375 C41.39713531 14.92888635 39.87833072 16.52253082 35.93847656 17.14990234 C29.74442219 17.21356896 24.81534947 15.74620109 19.09765625 13.4609375 C18.26556641 13.14382812 17.43347656 12.82671875 16.57617188 12.5 C10.57418822 10.18969354 10.57418822 10.18969354 7.79980469 8.71166992 C5.15630758 7.48657637 3.66732181 8.03300331 0.91015625 8.8359375 C-0.62502669 9.40265148 -2.14611255 10.00873525 -3.65234375 10.6484375 C-21.48414711 17.9034037 -21.48414711 17.9034037 -29.08984375 16.8359375 C-31.89987835 15.04229839 -33.59924843 13.81712815 -35.08984375 10.8359375 C-35.58984375 8.0859375 -35.58984375 8.0859375 -35.08984375 4.8359375 C-26.65202387 -5.50404987 -11.154485 -5.87956032 0 0 Z " fill="#17C46F" transform="translate(41.08984375,88.1640625)"/>
<path d="M0 0 C8 0 8 0 10.86328125 2.703125 C11.70623454 3.866638 12.52235089 5.05000119 13.3125 6.25 C13.72822266 6.83652344 14.14394531 7.42304687 14.57226562 8.02734375 C15.73418536 9.67139552 16.86801394 11.33519634 18 13 C18.99 14.32 19.98 15.64 21 17 C21.33 11.39 21.66 5.78 22 0 C24.64 0 27.28 0 30 0 C30 10.56 30 21.12 30 32 C22 32 22 32 20.22143555 30.77832031 C19.863479 30.21725586 19.50552246 29.65619141 19.13671875 29.078125 C18.72486328 28.46453125 18.31300781 27.8509375 17.88867188 27.21875 C17.49228516 26.5690625 17.09589844 25.919375 16.6875 25.25 C16.27177734 24.61578125 15.85605469 23.9815625 15.42773438 23.328125 C14.64940779 22.14021797 13.88249518 20.94468698 13.1315918 19.73925781 C11.84606688 17.76340463 10.41434269 15.88579025 9 14 C8.67 19.94 8.34 25.88 8 32 C5.36 32 2.72 32 0 32 C0 21.44 0 10.88 0 0 Z " fill="#FFDF63" transform="translate(204,65)"/>
<path d="M0 0 C8.25 0 16.5 0 25 0 C25 1.98 25 3.96 25 6 C19.39 6 13.78 6 8 6 C8 8.31 8 10.62 8 13 C12.95 13 17.9 13 23 13 C23 14.98 23 16.96 23 19 C18.05 19 13.1 19 8 19 C8 20.98 8 22.96 8 25 C13.94 25 19.88 25 26 25 C26 27.31 26 29.62 26 32 C17.42 32 8.84 32 0 32 C0 21.44 0 10.88 0 0 Z " fill="#FFDF61" transform="translate(159,65)"/>
<path d="M0 0 C8.91 0 17.82 0 27 0 C27 6.74862569 27 6.74862569 24.48046875 9.5078125 C23.68866211 10.39919922 23.68866211 10.39919922 22.88085938 11.30859375 C22.32205078 11.90800781 21.76324219 12.50742188 21.1875 13.125 C20.0968048 14.33517065 19.0069371 15.54608771 17.91796875 16.7578125 C17.43094482 17.2852002 16.9439209 17.81258789 16.44213867 18.35595703 C14.86334476 20.15578743 13.43649319 22.08467575 12 24 C17.28 24.33 22.56 24.66 28 25 C28 27.31 28 29.62 28 32 C18.43 32 8.86 32 -1 32 C-1 25.38187475 -0.77265816 25.04850113 3.5625 20.6875 C8.07799273 15.99858152 12.08209223 11.19548639 16 6 C10.72 6 5.44 6 0 6 C0 4.02 0 2.04 0 0 Z " fill="#FFDF62" transform="translate(112,65)"/>
<path d="M0 0 C7.92 0 15.84 0 24 0 C24 1.98 24 3.96 24 6 C18.72 6 13.44 6 8 6 C8 7.98 8 9.96 8 12 C12.95 12 17.9 12 23 12 C23 13.98 23 15.96 23 18 C17.72 18 12.44 18 7 18 C7 20.31 7 22.62 7 25 C12.94 25 18.88 25 25 25 C25 26.98 25 28.96 25 31 C16.75 31 8.5 31 0 31 C0 20.77 0 10.54 0 0 Z " fill="#07C066" transform="translate(152,20)"/>
<path d="M0 0 C1.4540625 0.7425 1.4540625 0.7425 2.9375 1.5 C2.6075 3.15 2.2775 4.8 1.9375 6.5 C0.28135343 6.88218767 -1.38707024 7.21395102 -3.0625 7.5 C-3.3925 7.17 -3.7225 6.84 -4.0625 6.5 C-5.57719448 6.26807135 -7.10004562 6.08784762 -8.625 5.9375 C-9.45128906 5.85371094 -10.27757812 5.76992188 -11.12890625 5.68359375 C-11.76699219 5.62300781 -12.40507812 5.56242187 -13.0625 5.5 C-12.01853974 8.56055432 -11.30227349 9.38132075 -8.34765625 10.84375 C-7.28417969 11.2253125 -6.22070312 11.606875 -5.125 12 C-0.9343048 13.50722452 1.76238399 14.48440122 3.9375 18.5 C3.86556179 22.52853967 3.56817947 24.72690903 1 27.875 C-3.40377535 31.34464118 -7.64339276 30.8238825 -13.0625 30.5 C-20.20591847 29.35658153 -20.20591847 29.35658153 -23.0625 26.5 C-22.6875 23.875 -22.6875 23.875 -22.0625 21.5 C-21.0725 21.17 -20.0825 20.84 -19.0625 20.5 C-18.155 20.974375 -17.2475 21.44875 -16.3125 21.9375 C-12.61675773 23.71429917 -10.11065429 23.74288926 -6.0625 23.5 C-5.7325 22.18 -5.4025 20.86 -5.0625 19.5 C-5.79855469 19.32984375 -6.53460938 19.1596875 -7.29296875 18.984375 C-18.17668032 16.28141889 -18.17668032 16.28141889 -21.0625 12.5 C-21.75348227 9.35283707 -21.79594873 6.64170163 -21.0625 3.5 C-15.52993479 -2.48115158 -7.29818927 -3.15115301 0 0 Z " fill="#0DC169" transform="translate(210.0625,20.5)"/>
<path d="M0 0 C1.91796875 1.1015625 1.91796875 1.1015625 4.79296875 3.1015625 C4.79296875 6.1015625 4.79296875 6.1015625 2.79296875 8.2890625 C1.80296875 9.18625 1.80296875 9.18625 0.79296875 10.1015625 C0.09171875 9.6065625 -0.60953125 9.1115625 -1.33203125 8.6015625 C-4.68025012 6.8546657 -6.48284755 6.54689684 -10.20703125 7.1015625 C-12.72709969 8.53817561 -12.72709969 8.53817561 -14.20703125 11.1015625 C-14.68795736 14.88026767 -14.43241448 17.43949927 -13.20703125 21.0390625 C-11.23038452 23.51443242 -11.23038452 23.51443242 -7.33203125 23.5390625 C-3.97671709 23.33477215 -1.23686532 22.61647954 1.79296875 21.1015625 C3.11296875 22.7515625 4.43296875 24.4015625 5.79296875 26.1015625 C0.14187239 30.83626485 -3.91754187 31.56840504 -11.18359375 31.515625 C-15.13933774 30.97388228 -17.07768796 29.62160193 -19.90234375 26.90234375 C-23.27511732 22.24710837 -23.80998831 17.51071929 -23.7265625 11.8984375 C-22.83510178 7.09929559 -19.91773043 4.11084903 -16.20703125 1.1015625 C-11.36416359 -1.88242666 -5.26178694 -2.14196636 0 0 Z " fill="#0DC16A" transform="translate(135.20703125,19.8984375)"/>
<path d="M0 0 C4.5084452 2.1921697 7.81828151 6.27762265 11.31689453 9.78710938 C12.16574219 10.60759766 13.01458984 11.42808594 13.88916016 12.2734375 C14.68644531 13.06814453 15.48373047 13.86285156 16.30517578 14.68164062 C17.03905518 15.40843018 17.77293457 16.13521973 18.52905273 16.8840332 C20.00439453 18.97460938 20.00439453 18.97460938 19.98120117 20.97241211 C18.71447292 23.5688726 17.11385868 25.25412762 15.07470703 27.30273438 C14.27935547 28.10195312 13.48400391 28.90117188 12.66455078 29.72460938 C11.40964844 30.96210937 11.40964844 30.96210937 10.12939453 32.22460938 C9.30052734 33.06507812 8.47166016 33.90554687 7.61767578 34.77148438 C6.81974609 35.56554687 6.02181641 36.35960937 5.19970703 37.17773438 C4.46768066 37.90637695 3.7356543 38.63501953 2.98144531 39.38574219 C1.00439453 40.97460938 1.00439453 40.97460938 -1.99560547 40.97460938 C-3.46826172 39.57617188 -3.46826172 39.57617188 -5.05810547 37.59960938 C-12.11482734 28.693007 -12.11482734 28.693007 -20.99560547 21.97460938 C-20.12932728 16.14309827 -15.17185617 12.63850143 -11.18310547 8.66210938 C-9.95237305 7.38883789 -9.95237305 7.38883789 -8.69677734 6.08984375 C-7.5047168 4.89391602 -7.5047168 4.89391602 -6.28857422 3.67382812 C-5.56178467 2.93994873 -4.83499512 2.20606934 -4.08618164 1.44995117 C-1.99560547 -0.02539062 -1.99560547 -0.02539062 0 0 Z M-2.5078125 6.25976562 C-3.37188721 7.13955078 -3.37188721 7.13955078 -4.25341797 8.03710938 C-4.87861328 8.66875 -5.50380859 9.30039062 -6.14794922 9.95117188 C-7.12441406 10.95277344 -7.12441406 10.95277344 -8.12060547 11.97460938 C-9.10867187 12.97621094 -9.10867187 12.97621094 -10.11669922 13.99804688 C-11.74754871 15.65253186 -13.37356396 17.31149553 -14.99560547 18.97460938 C-13.71385828 21.79338949 -12.38552932 23.82702433 -10.17529297 25.99023438 C-9.37285156 26.78300781 -9.37285156 26.78300781 -8.55419922 27.59179688 C-7.99861328 28.130625 -7.44302734 28.66945313 -6.87060547 29.22460938 C-6.30728516 29.77890625 -5.74396484 30.33320312 -5.16357422 30.90429688 C-3.77874519 32.26565422 -2.38777343 33.62075797 -0.99560547 34.97460938 C2.99872234 33.35399905 5.79997774 30.58121765 8.81689453 27.59960938 C9.331875 27.1175 9.84685547 26.63539062 10.37744141 26.13867188 C13.14240366 23.508943 13.14240366 23.508943 14.17236328 19.97460938 C12.41883493 16.971912 10.01327354 14.71313771 7.50439453 12.34960938 C2.11037279 7.1865659 2.11037279 7.1865659 1.00439453 4.97460938 C-1.07236405 4.758748 -1.07236405 4.758748 -2.5078125 6.25976562 Z " fill="#12C26C" transform="translate(45.99560546875,43.025390625)"/>
<path d="M0 0 C3.3589598 0.76976162 5.0332978 1.91199147 7.078125 4.70703125 C8.89582306 8.61200124 8.89554621 12.52216877 8 16.6875 C5.5625 19.75 5.5625 19.75 3 21.6875 C2.67 22.0175 2.34 22.3475 2 22.6875 C-0.3125 23 -0.3125 23 -3 22.6875 C-6.39474761 19.95284221 -7.75477298 17.75441349 -8.2734375 13.3828125 C-8.45366832 8.82158627 -8.50456015 6.42950021 -5.875 2.5625 C-3 0.6875 -3 0.6875 0 0 Z " fill="#15C36E" transform="translate(46,15.3125)"/>
<path d="M0 0 C2.64 0 5.28 0 8 0 C8 10.56 8 21.12 8 32 C5.36 32 2.72 32 0 32 C0 21.44 0 10.88 0 0 Z " fill="#0BC168" transform="translate(225,19)"/>
<path d="M0 0 C0.99 0.66 1.98 1.32 3 2 C3.1875 4.625 3.1875 4.625 3 7 C-3.03540819 10.0177041 -9.86750536 7.66757949 -15.875 5.6875 C-16.85666138 5.36821533 -16.85666138 5.36821533 -17.8581543 5.04248047 C-21.21744788 3.87323561 -23.7615762 2.82704636 -26 0 C-17.27767764 -4.55077688 -8.91128534 -3.97272025 0 0 Z " fill="#EEFAF4" transform="translate(78,92)"/>
<path d="M0 0 C-4.46913158 5.46227193 -13.3442806 7.53548673 -20.07421875 8.390625 C-22.46887665 8.43257521 -24.64996925 8.46126637 -27 8 C-27.66 7.34 -28.32 6.68 -29 6 C-28.77919622 3.71836097 -28.18890457 2.28891288 -26.9375 0.375 C-19.200722 -5.11561664 -7.98177706 -4.16440542 0 0 Z " fill="#EEFAF5" transform="translate(39,92)"/>
<path d="M0 0 C5 0 5 0 6.8125 1.0625 C8.67584949 4.10270179 8.36649683 6.51828011 8 10 C6.8125 12.4375 6.8125 12.4375 5 14 C3.35 14 1.7 14 0 14 C0 9.38 0 4.76 0 0 Z " fill="#FFE57F" transform="translate(144,122)"/>
<path d="M0 0 C0.99 0 1.98 0 3 0 C3.33 0.99 3.66 1.98 4 3 C5.32 2.34 6.64 1.68 8 1 C8 5.62 8 10.24 8 15 C7.34 15 6.68 15 6 15 C5.34 13.68 4.68 12.36 4 11 C3.67 12.32 3.34 13.64 3 15 C2.01 15 1.02 15 0 15 C0 10.05 0 5.1 0 0 Z " fill="#FFE47E" transform="translate(114,149)"/>
<path d="M0 0 C0.99 0 1.98 0 3 0 C3 4.95 3 9.9 3 15 C0 14 0 14 -1.1875 11.9375 C-1.455625 11.298125 -1.72375 10.65875 -2 10 C-2.33 11.65 -2.66 13.3 -3 15 C-3.66 15 -4.32 15 -5 15 C-5 10.38 -5 5.76 -5 1 C-4.34 1 -3.68 1 -3 1 C-2.34 1.99 -1.68 2.98 -1 4 C-0.67 2.68 -0.34 1.36 0 0 Z " fill="#FFEDAC" transform="translate(82,149)"/>
<path d="M0 0 C0.99 0 1.98 0 3 0 C3 4.95 3 9.9 3 15 C2.01 14.67 1.02 14.34 0 14 C-1.1875 11.4375 -1.1875 11.4375 -2 9 C-2.33 10.98 -2.66 12.96 -3 15 C-3.66 15 -4.32 15 -5 15 C-5 10.38 -5 5.76 -5 1 C-4.01 1 -3.02 1 -2 1 C-1.67 1.99 -1.34 2.98 -1 4 C-0.67 2.68 -0.34 1.36 0 0 Z " fill="#FFE47A" transform="translate(142,149)"/>
<path d="M0 0 C3.53571429 0.53571429 3.53571429 0.53571429 5 2 C5.16796875 3.9609375 5.16796875 3.9609375 5.1875 6.375 C5.20167969 7.16648438 5.21585937 7.95796875 5.23046875 8.7734375 C5 11 5 11 3 14 C1.35 13.67 -0.3 13.34 -2 13 C-2.05391993 11.20866022 -2.09275571 9.41686101 -2.125 7.625 C-2.14820312 6.62726563 -2.17140625 5.62953125 -2.1953125 4.6015625 C-2 2 -2 2 0 0 Z " fill="#FFE06B" transform="translate(117,122)"/>
<path d="M0 0 C3.53571429 0.53571429 3.53571429 0.53571429 5 2 C5.16796875 3.9609375 5.16796875 3.9609375 5.1875 6.375 C5.20167969 7.16648438 5.21585938 7.95796875 5.23046875 8.7734375 C5 11 5 11 3 14 C1.35 13.67 -0.3 13.34 -2 13 C-2.05391993 11.20866022 -2.09275571 9.41686101 -2.125 7.625 C-2.14820313 6.62726563 -2.17140625 5.62953125 -2.1953125 4.6015625 C-2 2 -2 2 0 0 Z " fill="#FFE271" transform="translate(191,122)"/>
<path d="M0 0 C1.98 0 3.96 0 6 0 C7 1 7 1 7.09765625 4.16015625 C7.08605469 5.44792969 7.07445312 6.73570312 7.0625 8.0625 C7.05347656 9.35285156 7.04445312 10.64320313 7.03515625 11.97265625 C7.02355469 12.97167969 7.01195312 13.97070312 7 15 C5.5 13.625 5.5 13.625 4 12 C4 11.34 4 10.68 4 10 C3.34 10 2.68 10 2 10 C2 11.65 2 13.3 2 15 C1.34 15 0.68 15 0 15 C0 10.05 0 5.1 0 0 Z " fill="#FFE47E" transform="translate(209,122)"/>
<path d="M0 0 C2.86724686 0.57344937 3.8614515 0.8614515 6 3 C5.9765625 5.1640625 5.9765625 5.1640625 5.625 7.625 C5.51414062 8.44226562 5.40328125 9.25953125 5.2890625 10.1015625 C5.19367187 10.72804688 5.09828125 11.35453125 5 12 C3.35 12.33 1.7 12.66 0 13 C-2.45811625 9.31282562 -2.31118164 7.35654296 -2 3 C-1.34 2.01 -0.68 1.02 0 0 Z " fill="#ECFAF3" transform="translate(44,20)"/>
<path d="M0 0 C0.99 0 1.98 0 3 0 C3.66 1.98 4.32 3.96 5 6 C5.33 4.02 5.66 2.04 6 0 C6.66 0 7.32 0 8 0 C8 4.62 8 9.24 8 14 C7.01 13.67 6.02 13.34 5 13 C3.8125 10.4375 3.8125 10.4375 3 8 C2.67 9.98 2.34 11.96 2 14 C1.34 14 0.68 14 0 14 C0 9.38 0 4.76 0 0 Z " fill="#FFE065" transform="translate(126,122)"/>
<path d="M0 0 C1.65 0 3.3 0 5 0 C7 2 7 2 7.125 5.625 C7.08375 6.73875 7.0425 7.8525 7 9 C5.35 9.33 3.7 9.66 2 10 C2 11.65 2 13.3 2 15 C1.34 15 0.68 15 0 15 C0 10.05 0 5.1 0 0 Z " fill="#FFF0B8" transform="translate(50,122)"/>
<path d="M0 0 C0.66 0 1.32 0 2 0 C2.50636607 1.74816858 3.00484619 3.49862263 3.5 5.25 C3.7784375 6.22453125 4.056875 7.1990625 4.34375 8.203125 C5 11 5 11 5 15 C4.01 14.67 3.02 14.34 2 14 C2 13.34 2 12.68 2 12 C1.01 12 0.02 12 -1 12 C-1 12.99 -1 13.98 -1 15 C-1.66 15 -2.32 15 -3 15 C-2.5547115 9.72684667 -1.91626837 4.98229776 0 0 Z " fill="#FFE686" transform="translate(68,149)"/>
<path d="M0 0 C0.99 0 1.98 0 3 0 C3.33951619 1.56116819 3.67132544 3.12401338 4 4.6875 C4.185625 5.55761719 4.37125 6.42773438 4.5625 7.32421875 C4.98972047 9.93712964 5.07616201 12.35813038 5 15 C4.34 15 3.68 15 3 15 C3 14.01 3 13.02 3 12 C1.68 12 0.36 12 -1 12 C-1 12.99 -1 13.98 -1 15 C-1.66 15 -2.32 15 -3 15 C-2.44854729 9.76119922 -1.57077907 5.02649303 0 0 Z " fill="#FFE995" transform="translate(31,122)"/>
<path d="M0 0 C0.99 0 1.98 0 3 0 C4.7479503 5.24385089 5.19392201 9.47322267 5 15 C4.34 14.67 3.68 14.34 3 14 C3 13.34 3 12.68 3 12 C2.01 12 1.02 12 0 12 C-0.33 12.99 -0.66 13.98 -1 15 C-1.33 15 -1.66 15 -2 15 C-2.22577402 9.5814234 -1.46670113 5.22512279 0 0 Z " fill="#FFEDA9" transform="translate(90,122)"/>
<path d="M0 0 C1.32 0 2.64 0 4 0 C4.33820166 1.5823006 4.67035939 3.16589375 5 4.75 C5.185625 5.63171875 5.37125 6.5134375 5.5625 7.421875 C6 10 6 10 6 14 C5.34 14 4.68 14 4 14 C4 13.01 4 12.02 4 11 C2.68 11 1.36 11 0 11 C0 11.99 0 12.98 0 14 C-0.66 14 -1.32 14 -2 14 C-1.34 9.38 -0.68 4.76 0 0 Z " fill="#FFE685" transform="translate(160,150)"/>
<path d="M0 0 C0.33 0.99 0.66 1.98 1 3 C1.66 3.33 2.32 3.66 3 4 C3 4.99 3 5.98 3 7 C2.01 7 1.02 7 0 7 C0 7.66 0 8.32 0 9 C0.66 9 1.32 9 2 9 C2 9.66 2 10.32 2 11 C1.01 11 0.02 11 -1 11 C-1 12.98 -1 14.96 -1 17 C0.32 17 1.64 17 3 17 C3 17.66 3 18.32 3 19 C1.02 19 -0.96 19 -3 19 C-3 14.05 -3 9.1 -3 4 C-2.34 4 -1.68 4 -1 4 C-0.67 2.68 -0.34 1.36 0 0 Z " fill="#FFE580" transform="translate(101,145)"/>
<path d="M0 0 C0.66 0 1.32 0 2 0 C1.34 4.62 0.68 9.24 0 14 C-1.32 14 -2.64 14 -4 14 C-5.10228696 9.59085217 -5.07654536 5.51617599 -5 1 C-4.34 1 -3.68 1 -3 1 C-2.34 2.32 -1.68 3.64 -1 5 C-0.67 3.35 -0.34 1.7 0 0 Z " fill="#FFE274" transform="translate(183,122)"/>
<path d="M0 0 C1.98 0 3.96 0 6 0 C6 0.66 6 1.32 6 2 C4.68 2 3.36 2 2 2 C2 3.32 2 4.64 2 6 C2.99 6 3.98 6 5 6 C5 6.66 5 7.32 5 8 C4.34 8 3.68 8 3 8 C3 9.32 3 10.64 3 12 C3.99 12 4.98 12 6 12 C6 12.99 6 13.98 6 15 C4.02 15 2.04 15 0 15 C0 10.05 0 5.1 0 0 Z " fill="#FFE582" transform="translate(179,149)"/>
<path d="M0 0 C1.65 0 3.3 0 5 0 C5 0.66 5 1.32 5 2 C4.01 2 3.02 2 2 2 C2 2.99 2 3.98 2 5 C2.99 5 3.98 5 5 5 C5 5.99 5 6.98 5 8 C4.01 8 3.02 8 2 8 C2 9.65 2 11.3 2 13 C2.99 13 3.98 13 5 13 C5 13.66 5 14.32 5 15 C3.35 15 1.7 15 0 15 C0 10.05 0 5.1 0 0 Z " fill="#FFDF63" transform="translate(127,149)"/>
<path d="M0 0 C1.67542976 0.28604898 3.34385343 0.61781233 5 1 C5 1.66 5 2.32 5 3 C3.68 3 2.36 3 1 3 C1.474375 3.721875 1.94875 4.44375 2.4375 5.1875 C3.95935593 7.92684067 4.74777092 9.88917474 5 13 C4.34 13.66 3.68 14.32 3 15 C0.875 14.625 0.875 14.625 -1 14 C-0.67 13.34 -0.34 12.68 0 12 C0.99 12.33 1.98 12.66 3 13 C1.24545615 9.81765895 1.24545615 9.81765895 -1 7 C-1.125 4 -1.125 4 -1 1 C-0.67 0.67 -0.34 0.34 0 0 Z " fill="#FFE378" transform="translate(56,149)"/>
<path d="M0 0 C1.98 0 3.96 0 6 0 C6 0.66 6 1.32 6 2 C5.34 2 4.68 2 4 2 C4 5.96 4 9.92 4 14 C3.01 14 2.02 14 1 14 C0.67 9.38 0.34 4.76 0 0 Z " fill="#FFE78C" transform="translate(149,150)"/>
<path d="M0 0 C1.65 0 3.3 0 5 0 C5 0.66 5 1.32 5 2 C4.01 2 3.02 2 2 2 C2 2.99 2 3.98 2 5 C2.99 5 3.98 5 5 5 C5 5.66 5 6.32 5 7 C4.01 7 3.02 7 2 7 C2 8.65 2 10.3 2 12 C2.99 12 3.98 12 5 12 C5 12.66 5 13.32 5 14 C3.35 14 1.7 14 0 14 C0 9.38 0 4.76 0 0 Z " fill="#FFE16E" transform="translate(221,122)"/>
<path d="M0 0 C2.125 0.375 2.125 0.375 4 1 C3.67 1.66 3.34 2.32 3 3 C2.34 3 1.68 3 1 3 C0.67 5.97 0.34 8.94 0 12 C1.32 12 2.64 12 4 12 C3.67 12.99 3.34 13.98 3 15 C-0.875 14.125 -0.875 14.125 -2 13 C-2.12487758 11.19072719 -2.17570846 9.37603893 -2.1875 7.5625 C-2.20167969 6.57378906 -2.21585937 5.58507812 -2.23046875 4.56640625 C-2 2 -2 2 0 0 Z " fill="#FFE997" transform="translate(79,122)"/>
<path d="M0 0 C1.65 0 3.3 0 5 0 C5 0.66 5 1.32 5 2 C4.01 2 3.02 2 2 2 C2 2.99 2 3.98 2 5 C2.66 5 3.32 5 4 5 C4 5.66 4 6.32 4 7 C3.34 7 2.68 7 2 7 C2 8.65 2 10.3 2 12 C2.99 12 3.98 12 5 12 C5 12.66 5 13.32 5 14 C3.35 14 1.7 14 0 14 C0 9.38 0 4.76 0 0 Z " fill="#FFE26F" transform="translate(156,122)"/>
<path d="M0 0 C0.66 0 1.32 0 2 0 C2 2.31 2 4.62 2 7 C2.99 7 3.98 7 5 7 C5 5.35 5 3.7 5 2 C5.33 2 5.66 2 6 2 C6 3.98 6 5.96 6 8 C4.02 8.99 4.02 8.99 2 10 C2 11.32 2 12.64 2 14 C1.34 14 0.68 14 0 14 C0 9.38 0 4.76 0 0 Z " fill="#FFE273" transform="translate(40,123)"/>
<path d="M0 0 C1.98 0 3.96 0 6 0 C6 0.99 6 1.98 6 3 C5.34 3 4.68 3 4 3 C4 6.96 4 10.92 4 15 C3.34 15 2.68 15 2 15 C2 10.71 2 6.42 2 2 C1.34 2 0.68 2 0 2 C0 1.34 0 0.68 0 0 Z " fill="#FFE580" transform="translate(200,122)"/>
<path d="M0 0 C0.66 0 1.32 0 2 0 C2 4.29 2 8.58 2 13 C3.32 13 4.64 13 6 13 C6 13.66 6 14.32 6 15 C4.02 15 2.04 15 0 15 C0 10.05 0 5.1 0 0 Z " fill="#FFE88E" transform="translate(12,122)"/>
<path d="M0 0 C1.98 0 3.96 0 6 0 C6 0.66 6 1.32 6 2 C5.34 2 4.68 2 4 2 C4 6.29 4 10.58 4 15 C3.34 15 2.68 15 2 15 C2 10.71 2 6.42 2 2 C1.34 2 0.68 2 0 2 C0 1.34 0 0.68 0 0 Z " fill="#FFE47A" transform="translate(99,122)"/>
<path d="M0 0 C0.66 0 1.32 0 2 0 C2 4.29 2 8.58 2 13 C3.32 13 4.64 13 6 13 C6 13.66 6 14.32 6 15 C4.02 15 2.04 15 0 15 C0 10.05 0 5.1 0 0 Z " fill="#FFE686" transform="translate(61,122)"/>
<path d="M0 0 C2.37531394 -0.0543965 4.74935883 -0.09385864 7.125 -0.125 C7.79015625 -0.14175781 8.4553125 -0.15851563 9.140625 -0.17578125 C13.49516056 -0.21847278 16.95600114 0.40003783 21 2 C18.36095629 3.41377341 15.92879371 4.37240135 13 5 C12.67 4.01 12.34 3.02 12 2 C8.04 1.67 4.08 1.34 0 1 C0 0.67 0 0.34 0 0 Z " fill="#35CB82" transform="translate(19,85)"/>
<path d="M0 0 C0.66 0 1.32 0 2 0 C2 4.29 2 8.58 2 13 C2.99 13 3.98 13 5 13 C5 13.66 5 14.32 5 15 C3.35 15 1.7 15 0 15 C0 10.05 0 5.1 0 0 Z " fill="#FFE57F" transform="translate(170,149)"/>
<path d="M0 0 C0.99 0.33 1.98 0.66 3 1 C3 3.64 3 6.28 3 9 C1.68 9 0.36 9 -1 9 C-1.125 2.25 -1.125 2.25 0 0 Z " fill="#FFF8DD" transform="translate(117,124)"/>
<path d="M0 0 C0.99 0 1.98 0 3 0 C3.33951619 1.56116819 3.67132544 3.12401338 4 4.6875 C4.185625 5.55761719 4.37125 6.42773438 4.5625 7.32421875 C4.98972047 9.93712964 5.07616201 12.35813038 5 15 C4.34 15 3.68 15 3 15 C2.67 11.7 2.34 8.4 2 5 C1.34 5 0.68 5 0 5 C0 3.35 0 1.7 0 0 Z " fill="#FFE378" transform="translate(31,122)"/>
<path d="M0 0 C1.65 0 3.3 0 5 0 C4.67 0.66 4.34 1.32 4 2 C3.77141886 4.0374763 3.58975722 6.08040303 3.4375 8.125 C3.35371094 9.22070312 3.26992187 10.31640625 3.18359375 11.4453125 C3.12300781 12.28835937 3.06242187 13.13140625 3 14 C2.34 14 1.68 14 1 14 C0.67 9.38 0.34 4.76 0 0 Z " fill="#FFE374" transform="translate(89,150)"/>
<path d="M0 0 C0.99 0 1.98 0 3 0 C3 3.3 3 6.6 3 10 C2.01 10.33 1.02 10.66 0 11 C0 7.37 0 3.74 0 0 Z " fill="#FFF9E6" transform="translate(146,124)"/>
<path d="M0 0 C0.33 0.99 0.66 1.98 1 3 C1.99 3 2.98 3 4 3 C4.33 2.34 4.66 1.68 5 1 C5.33 3.31 5.66 5.62 6 8 C5.34 7.67 4.68 7.34 4 7 C4 6.34 4 5.68 4 5 C3.01 5 2.02 5 1 5 C0.67 5.99 0.34 6.98 0 8 C-0.33 8 -0.66 8 -1 8 C-1.04241723 5.66705225 -1.04092937 3.33297433 -1 1 C-0.67 0.67 -0.34 0.34 0 0 Z " fill="#FFE47C" transform="translate(89,129)"/>
<path d="M0 0 C0.99 0.33 1.98 0.66 3 1 C3 3.64 3 6.28 3 9 C2.01 9.33 1.02 9.66 0 10 C0 6.7 0 3.4 0 0 Z " fill="#FFFBED" transform="translate(191,124)"/>
<path d="M0 0 C1.65 0 3.3 0 5 0 C6.09658936 3.28976808 5.79953138 4.71303767 5 8 C4.01 8 3.02 8 2 8 C2 5.69 2 3.38 2 1 C1.34 0.67 0.68 0.34 0 0 Z " fill="#FFF1BD" transform="translate(40,122)"/>
<path d="M0 0 C3.63 0 7.26 0 11 0 C10.67 0.99 10.34 1.98 10 3 C7.03 3 4.06 3 1 3 C0.67 2.01 0.34 1.02 0 0 Z " fill="#00BC5D" transform="translate(60,86)"/>
<path d="M0 0 C0.66 0 1.32 0 2 0 C2.66 2.64 3.32 5.28 4 8 C3.34 8 2.68 8 2 8 C2 9.65 2 11.3 2 13 C1.67 13 1.34 13 1 13 C-0.10228696 8.59085217 -0.07654536 4.51617599 0 0 Z " fill="#FFE890" transform="translate(178,123)"/>
<path d="M0 0 C3.3 0 6.6 0 10 0 C9.67 0.99 9.34 1.98 9 3 C6.03 3 3.06 3 0 3 C0 2.01 0 1.02 0 0 Z " fill="#00BC5D" transform="translate(22,86)"/>
<path d="M0 0 C0.33 0 0.66 0 1 0 C1 2.64 1 5.28 1 8 C4.16666667 6.16666667 4.16666667 6.16666667 6 3 C6 4.65 6 6.3 6 8 C4.35 8.33 2.7 8.66 1 9 C1 10.65 1 12.3 1 14 C0.67 14 0.34 14 0 14 C0 9.38 0 4.76 0 0 Z " fill="#FFDE5F" transform="translate(51,123)"/>
<path d="M0 0 C0.99 0 1.98 0 3 0 C3.33 1.65 3.66 3.3 4 5 C3.01 5 2.02 5 1 5 C1 6.98 1 8.96 1 11 C0.67 11 0.34 11 0 11 C0 7.37 0 3.74 0 0 Z " fill="#FFE374" transform="translate(126,122)"/>
<path d="M0 0 C0.33 0 0.66 0 1 0 C1 4.62 1 9.24 1 14 C0.01 13.01 -0.98 12.02 -2 11 C-2 10.01 -2 9.02 -2 8 C-1.34 8 -0.68 8 0 8 C0 5.36 0 2.72 0 0 Z " fill="#FFDF60" transform="translate(83,150)"/>
<path d="M0 0 C0.66 0 1.32 0 2 0 C2.33 1.65 2.66 3.3 3 5 C2.34 5 1.68 5 1 5 C1 7.97 1 10.94 1 14 C0.67 14 0.34 14 0 14 C0 9.38 0 4.76 0 0 Z " fill="#FFDE5A" transform="translate(77,150)"/>
<path d="M0 0 C1.65 0 3.3 0 5 0 C5 0.66 5 1.32 5 2 C4.01 2 3.02 2 2 2 C2 2.99 2 3.98 2 5 C2.99 5 3.98 5 5 5 C5 5.99 5 6.98 5 8 C2 7 2 7 0.8125 5.125 C0 3 0 3 0 0 Z " fill="#FFE689" transform="translate(127,149)"/>
<path d="M0 0 C2.125 0.375 2.125 0.375 4 1 C3.67 1.66 3.34 2.32 3 3 C2.34 3 1.68 3 1 3 C0.34 5.64 -0.32 8.28 -1 11 C-1.33 11 -1.66 11 -2 11 C-2.05399736 9.54207116 -2.09279177 8.08357288 -2.125 6.625 C-2.15980469 5.40683594 -2.15980469 5.40683594 -2.1953125 4.1640625 C-2 2 -2 2 0 0 Z " fill="#FFE377" transform="translate(79,122)"/>
<path d="M0 0 C0.33 0.99 0.66 1.98 1 3 C1.66 3 2.32 3 3 3 C3 3.66 3 4.32 3 5 C2.01 5.33 1.02 5.66 0 6 C-0.33 7.65 -0.66 9.3 -1 11 C-1.33 11 -1.66 11 -2 11 C-2 8.03 -2 5.06 -2 2 C-1.34 2 -0.68 2 0 2 C0 1.34 0 0.68 0 0 Z " fill="#FFE891" transform="translate(80,153)"/>
<path d="M0 0 C0.99 0 1.98 0 3 0 C3 2.31 3 4.62 3 7 C2.01 6.67 1.02 6.34 0 6 C0 4.02 0 2.04 0 0 Z " fill="#FFE271" transform="translate(90,122)"/>
<path d="M0 0 C0.99 0 1.98 0 3 0 C3 1.98 3 3.96 3 6 C2.01 6 1.02 6 0 6 C0 4.02 0 2.04 0 0 Z " fill="#FFFAE7" transform="translate(211,124)"/>
</svg>
